<?xml version="1.0" encoding="UTF-8"?>
<!-- Generator: visioncortex VTracer 0.6.12 -->
<svg version="1.1" xmlns="http://www.w3.org/2000/svg" width="1359" height="1158">
<path d="M0 0 C448.47 0 896.94 0 1359 0 C1359 382.14 1359 764.28 1359 1158 C910.53 1158 462.06 1158 0 1158 C0 775.86 0 393.72 0 0 Z " fill="#078422" transform="translate(0,0)"/>
<path d="M0 0 C5.235 0.013 10.47 0.009 15.704 0.006 C24.747 0.005 33.789 0.014 42.831 0.031 C55.905 0.056 68.978 0.063 82.051 0.067 C103.268 0.074 124.485 0.093 145.702 0.122 C166.297 0.149 186.892 0.171 207.487 0.183 C208.123 0.184 208.123 0.184 211.342 0.186 C217.725 0.19 224.107 0.193 230.49 0.197 C283.337 0.228 336.183 0.281 389.03 0.348 C388.094 2.72 387.155 5.091 386.214 7.461 C385.952 8.125 385.691 8.788 385.421 9.472 C382.963 15.651 380.114 21.581 377.03 27.473 C376.475 28.535 375.921 29.597 375.349 30.691 C367.078 46.212 357.096 60.693 346.03 74.348 C345.299 75.283 344.568 76.217 343.815 77.18 C330.352 93.83 314.424 109.85 297.03 122.348 C295.05 123.869 293.071 125.389 291.093 126.911 C280.881 134.508 270.383 141.571 259.03 147.348 C258.268 147.741 257.507 148.134 256.722 148.539 C239.288 157.52 221.774 165.513 203.03 171.348 C201.801 171.734 200.572 172.121 199.305 172.518 C189.086 175.662 178.806 178.037 168.317 180.088 C165.7 180.602 163.087 181.13 160.473 181.661 C158.767 182 157.061 182.339 155.354 182.676 C154.595 182.83 153.835 182.985 153.052 183.143 C146.647 184.381 140.649 184.797 134.03 185.348 C224.45 185.678 314.87 186.008 408.03 186.348 C408.03 306.138 408.03 425.928 408.03 549.348 C176.7 549.348 -54.63 549.348 -292.97 549.348 C-292.97 406.993 -292.97 406.993 -292.636 344.743 C-292.596 337.153 -292.566 329.563 -292.537 321.972 C-292.507 314.3 -292.47 306.628 -292.427 298.956 C-292.402 294.48 -292.381 290.005 -292.367 285.53 C-292.294 263.209 -291.793 241.667 -286.845 219.786 C-286.695 219.113 -286.546 218.441 -286.392 217.748 C-281.773 197.052 -275.905 176.606 -266.22 157.661 C-265.881 156.994 -265.543 156.327 -265.194 155.641 C-264.481 154.243 -263.766 152.846 -263.048 151.451 C-261.979 149.366 -260.928 147.274 -259.876 145.18 C-250.354 126.461 -238.285 109.07 -224.056 93.618 C-222.128 91.521 -220.262 89.384 -218.407 87.223 C-212.426 80.374 -205.878 74.246 -198.97 68.348 C-198.047 67.536 -197.124 66.724 -196.173 65.887 C-182.602 54.037 -167.89 44.297 -152.153 35.565 C-150.218 34.486 -148.299 33.383 -146.384 32.27 C-124.614 20.015 -100.488 11.987 -76.282 6.161 C-75.317 5.922 -74.351 5.684 -73.356 5.439 C-49.065 -0.154 -24.77 -0.078 0 0 Z " fill="#FCC402" transform="translate(618.9699745178223,365.6518031358719)"/>
<path d="M0 0 C36.96 0 73.92 0 112 0 C112 0.33 112 0.66 112 1 C112.697 1.029 113.395 1.058 114.114 1.088 C153.983 2.935 192.699 16.962 226 39 C226.317 39.209 226.317 39.209 227.921 40.27 C239.894 48.225 250.864 56.912 261.441 66.664 C263.631 68.663 265.859 70.589 268.125 72.5 C272.846 76.618 276.908 81.268 281 86 C281.443 86.509 281.886 87.017 282.342 87.542 C288.617 94.766 294.554 102.12 300 110 C300.38 110.548 300.76 111.097 301.151 111.662 C314.07 130.414 324.922 149.803 332.637 171.266 C333.468 173.543 334.337 175.809 335.27 178.047 C345.076 201.583 350.232 229.519 350.125 255 C350.129 255.953 350.133 256.905 350.137 257.887 C350.135 258.79 350.134 259.694 350.133 260.625 C350.132 261.034 350.132 261.034 350.129 263.102 C350 265 350 265 349 266 C346.118 266.11 343.259 266.155 340.376 266.158 C339.46 266.163 338.545 266.168 337.601 266.173 C334.509 266.189 331.416 266.197 328.324 266.205 C326.117 266.215 323.91 266.225 321.703 266.235 C315.691 266.262 309.679 266.283 303.666 266.303 C297.391 266.325 291.116 266.353 284.84 266.379 C274.301 266.424 263.761 266.465 253.221 266.503 C242.364 266.542 231.506 266.583 220.648 266.628 C219.979 266.63 219.311 266.633 218.621 266.636 C215.266 266.65 211.911 266.663 208.556 266.677 C180.704 266.791 152.852 266.898 125 267 C128.166 267.651 131.333 268.295 134.5 268.938 C135.387 269.12 136.274 269.302 137.188 269.49 C142.451 270.555 147.668 271.369 153 272 C155.434 272.684 155.434 272.684 157.438 273.438 C160.306 274.454 163.079 275.279 166.062 275.875 C173.186 277.351 180.083 279.776 187 282 C187 282.66 187 283.32 187 284 C187.784 284.082 188.568 284.165 189.375 284.25 C194.231 285.255 198.466 287.009 203 289 C203.662 289.289 204.324 289.577 205.006 289.875 C229.134 300.513 250.279 315.62 270 333 C270.521 333.458 271.042 333.915 271.578 334.387 C282.121 343.703 291.257 353.984 300 365 C300.708 365.889 301.415 366.779 302.145 367.695 C324.168 396.187 338.729 429.054 347 464 C347.205 464.856 347.41 465.713 347.621 466.595 C349.924 476.496 351.26 486.217 351.598 496.378 C351.637 497.456 351.676 498.534 351.717 499.644 C352.146 512.639 352.132 525.633 352.114 538.633 C352.113 541.405 352.113 544.177 352.114 546.949 C352.114 552.861 352.111 558.772 352.106 564.683 C352.098 573.23 352.095 581.776 352.094 590.322 C352.092 604.195 352.085 618.069 352.075 631.942 C352.066 645.4 352.059 658.859 352.055 672.317 C352.055 673.15 352.054 673.983 352.054 674.841 C352.053 679.019 352.052 683.198 352.05 687.377 C352.04 721.918 352.022 756.459 352 791 C312.916 791.046 273.833 791.081 234.749 791.102 C230.123 791.105 225.498 791.107 220.872 791.11 C219.951 791.11 219.03 791.111 218.082 791.111 C203.219 791.12 188.355 791.136 173.492 791.154 C158.214 791.173 142.936 791.184 127.658 791.188 C118.249 791.191 108.84 791.199 99.43 791.216 C92.957 791.226 86.484 791.23 80.011 791.227 C76.29 791.226 72.569 791.228 68.847 791.238 C46.932 791.299 25.171 790.711 3.562 786.75 C2.346 786.531 1.13 786.312 -0.123 786.086 C-18.9 782.621 -37.027 777.852 -55.188 772 C-55.971 771.749 -56.755 771.498 -57.562 771.239 C-66.609 768.323 -75.417 765.139 -84.106 761.279 C-86.612 760.171 -89.125 759.154 -91.688 758.188 C-104.966 752.915 -117.808 746.432 -130 739 C-130.711 738.568 -131.422 738.137 -132.154 737.692 C-147.399 728.386 -162.494 718.651 -175.492 706.328 C-178.09 703.916 -180.79 701.709 -183.562 699.5 C-191.182 693.337 -197.965 686.405 -204.316 678.953 C-205.423 677.67 -206.555 676.408 -207.715 675.172 C-212.624 669.9 -216.914 664.226 -221.188 658.438 C-221.782 657.634 -222.376 656.831 -222.989 656.003 C-226.556 651.126 -229.852 646.155 -233 641 C-233.732 639.849 -234.466 638.699 -235.203 637.551 C-235.541 637.016 -235.541 637.016 -237.25 634.312 C-237.936 633.236 -238.622 632.16 -239.328 631.051 C-240.867 628.242 -241.603 626.149 -242 623 C-242.66 623 -243.32 623 -244 623 C-268 572.681 -268 572.681 -268 548 C-172.96 548 -77.92 548 20 548 C20 428.21 20 308.42 20 185 C-73.39 185 -166.78 185 -263 185 C-263 184.67 -263 184.34 -263 184 C-261.948 183.948 -260.896 183.897 -259.812 183.844 C-229.081 181.829 -196.458 174.795 -168 163 C-167.059 162.618 -166.117 162.236 -165.147 161.843 C-157.77 158.822 -150.558 155.517 -143.375 152.062 C-142.321 151.563 -141.266 151.063 -140.18 150.549 C-134.327 147.742 -128.698 144.752 -123.18 141.331 C-121.03 140.018 -118.847 138.81 -116.625 137.625 C-106.257 131.887 -96.876 124.815 -87.695 117.371 C-86.15 116.122 -84.592 114.89 -83.031 113.66 C-66.77 100.459 -51.241 85.006 -39 68 C-38.102 66.815 -37.201 65.633 -36.297 64.453 C-26.678 51.795 -18.611 38.294 -11.188 24.25 C-10.756 23.436 -10.324 22.622 -9.879 21.783 C-6.172 14.637 -3.197 7.461 0 0 Z " fill="#078422" transform="translate(1007,367)"/>
<path d="M0 0 C107.58 0.33 215.16 0.66 326 1 C326 39.61 326 78.22 326 118 C462.29 118 598.58 118 739 118 C740.32 124.27 741.64 130.54 743 137 C743.885 140.399 744.772 143.72 745.812 147.062 C746.063 147.881 746.314 148.699 746.573 149.542 C750.425 161.839 755.161 173.765 760.867 185.32 C762.224 188.103 763 189.854 763 193 C763.66 193 764.32 193 765 193 C765.24 193.672 765.48 194.343 765.727 195.035 C767.306 198.713 769.293 202.026 771.375 205.438 C771.762 206.08 772.148 206.723 772.547 207.385 C776.843 214.485 781.568 221.167 786.578 227.781 C788.158 229.869 789.701 231.971 791.234 234.094 C795.639 240.155 800.28 245.505 805.672 250.707 C807.705 252.71 809.547 254.75 811.375 256.938 C816.096 262.451 821.595 267.176 827 272 C827.691 272.629 828.382 273.258 829.094 273.906 C852.076 294.551 879.65 310.815 907.438 324.125 C907.747 324.275 907.747 324.275 909.312 325.035 C922.318 331.154 936.191 335.536 949.812 340.062 C950.603 340.325 951.393 340.588 952.207 340.859 C971.928 347.399 991.566 352.186 1012 356 C1013.2 356.227 1014.4 356.454 1015.637 356.688 C1026.646 358.569 1037.873 359.154 1049 360 C1049 360.33 1049 360.66 1049 361 C702.83 361 356.66 361 0 361 C0 241.87 0 122.74 0 0 Z " fill="#000000" transform="translate(0,797)"/>
<path d="M0 0 C183.81 0 367.62 0 557 0 C557 289.41 557 578.82 557 877 C556.67 877 556.34 877 556 877 C555.996 876.379 555.992 875.758 555.988 875.118 C555.339 818.286 532.184 761.377 493.375 719.812 C490.325 716.535 487.324 713.236 484.438 709.812 C464.634 687.113 435.355 668.916 408 657 C406.815 656.483 405.631 655.966 404.41 655.434 C396.149 651.919 396.149 651.919 392 651 C392 650.34 392 649.68 392 649 C391.455 648.89 390.909 648.781 390.348 648.668 C386.424 647.843 382.647 646.928 378.875 645.562 C374.014 643.859 369.018 642.928 363.964 642.002 C359.097 641.097 359.097 641.097 358 640 C346.134 637.342 334.027 635.738 322 634 C322 633.67 322 633.34 322 633 C398.56 632.67 475.12 632.34 554 632 C554 607.582 554 607.582 552.375 597.75 C552.2 596.632 552.024 595.515 551.844 594.363 C549.196 578.222 545.329 562.459 540 547 C539.514 545.546 539.028 544.091 538.543 542.637 C530.92 520.222 519.637 499.328 506 480 C505.3 479.005 504.6 478.01 503.879 476.984 C496.789 467.089 489.133 457.925 480.824 449.047 C478.565 446.627 476.39 444.152 474.25 441.625 C470.817 437.675 466.999 434.364 463 431 C462.064 430.176 461.128 429.353 460.164 428.504 C451.907 421.278 443.173 415.009 434 409 C432.978 408.325 431.956 407.649 430.902 406.953 C416.844 397.989 401.626 389.832 386 384 C384.623 383.456 383.247 382.912 381.871 382.367 C352.504 370.928 322.591 366.402 291.18 366.391 C288.728 366.376 286.277 366.359 283.825 366.341 C277.47 366.297 271.115 366.277 264.759 366.262 C258.235 366.242 251.711 366.2 245.188 366.16 C232.458 366.085 219.729 366.034 207 366 C207.643 361.956 208.47 358.223 209.777 354.34 C210.126 353.299 210.475 352.258 210.834 351.186 C211.198 350.114 211.562 349.042 211.938 347.938 C212.298 346.862 212.658 345.786 213.029 344.678 C215.73 336.654 215.73 336.654 217.043 333.469 C218.737 329.097 219.538 324.517 220.5 319.938 C220.713 318.983 220.925 318.028 221.145 317.045 C224.724 300.082 225.354 282.967 225.25 265.688 C225.247 264.748 225.243 263.809 225.24 262.841 C225.014 210.012 212.842 155.316 181 112 C180.323 111.054 179.646 110.108 178.949 109.133 C176.987 106.406 174.997 103.702 173 101 C172.545 100.361 172.09 99.721 171.621 99.062 C131.111 42.953 66.512 12.515 0 1 C0 0.67 0 0.34 0 0 Z " fill="#000000" transform="translate(802,0)"/>
<path d="M0 0 C82.5 0 165 0 250 0 C250 0.33 250 0.66 250 1 C249.242 1.065 248.484 1.129 247.703 1.196 C224.005 3.278 201.539 7.182 179 15 C177.925 15.365 176.85 15.73 175.742 16.105 C150.381 25.276 127.698 39.142 106.68 55.844 C105 57 105 57 103 57 C103 57.66 103 58.32 103 59 C101.516 60.249 101.516 60.249 99.473 61.664 C95.047 64.877 91.258 68.475 87.438 72.375 C86.784 73.035 86.131 73.695 85.458 74.374 C81.596 78.298 77.84 82.28 74.293 86.492 C73 88 73 88 70.625 90.312 C69 92 69 92 68 95 C66.694 96.36 65.356 97.69 64 99 C59.893 103.789 56.016 108.582 53.055 114.164 C51.704 116.515 50.142 118.672 48.562 120.875 C45.338 125.436 42.611 130.069 40 135 C39.302 136.273 38.602 137.545 37.902 138.816 C33.252 147.337 29.23 155.84 25.814 164.927 C24.792 167.53 23.68 170.092 22.578 172.664 C19.99 178.859 17.903 185.126 16 191.562 C15.658 192.718 15.316 193.873 14.964 195.063 C11.389 207.546 9.032 220.187 7 233 C6.874 233.778 6.748 234.557 6.618 235.358 C5.048 245.239 4.59 254.967 4 265 C85.18 265 166.36 265 250 265 C250 265.33 250 265.66 250 266 C249.292 266.095 248.584 266.19 247.855 266.288 C193.632 273.667 144.382 292.637 102.277 328.25 C100 330 100 330 97 331 C97 331.66 97 332.32 97 333 C96.01 333 95.02 333 94 333 C93.766 333.562 93.532 334.124 93.291 334.703 C91.682 337.565 89.706 339.466 87.344 341.746 C86.408 342.661 85.471 343.575 84.507 344.517 C84.015 344.995 83.523 345.472 83.016 345.965 C75.246 353.516 67.847 361.028 61.609 369.93 C61.078 370.613 60.547 371.296 60 372 C59.34 372 58.68 372 58 372 C57.752 372.516 57.505 373.031 57.25 373.562 C55.604 376.772 53.802 379.876 52 383 C51.34 383 50.68 383 50 383 C49.762 383.855 49.523 384.709 49.277 385.59 C47.867 389.355 45.878 392.323 43.562 395.562 C37.125 404.885 32.053 414.879 27 425 C26.497 425.994 25.995 426.988 25.477 428.012 C13.931 452.072 7.084 478.738 3 505 C2.813 506.174 2.626 507.349 2.434 508.559 C1.914 512.682 1.654 516.789 1.438 520.938 C1.394 521.717 1.351 522.496 1.307 523.299 C1.202 525.199 1.1 527.1 1 529 C0.67 529 0.34 529 0 529 C0 354.43 0 179.86 0 0 Z " fill="#000100" transform="translate(0,0)"/>
<path d="M0 0 C0.33 0 0.66 0 1 0 C1 84.15 1 168.3 1 255 C-84.8 255 -170.6 255 -259 255 C-259 254.67 -259 254.34 -259 254 C-258.641 253.968 -258.641 253.968 -256.826 253.804 C-215.806 250.007 -176.122 240.373 -140 220 C-138.188 219.041 -136.375 218.082 -134.562 217.125 C-117.171 207.564 -101.991 195.915 -87 183 C-86.624 182.681 -86.624 182.681 -84.723 181.066 C-77.622 174.978 -70.827 168.64 -65.484 160.922 C-64 159 -64 159 -61.629 156.645 C-45.961 140.883 -34.52 119.767 -24.923 99.888 C-24.291 98.594 -23.644 97.307 -22.987 96.026 C-20.658 91.488 -18.729 86.922 -17 82.125 C-16.522 80.815 -16.043 79.505 -15.562 78.195 C-15.316 77.521 -15.07 76.847 -14.816 76.152 C-13.928 73.811 -12.966 71.507 -12.004 69.195 C-9.845 63.819 -8.324 58.37 -6.938 52.75 C-6.681 51.711 -6.424 50.673 -6.159 49.603 C-2.256 33.253 -0.6 16.771 0 0 Z " fill="#000000" transform="translate(1358,903)"/>
<path d="M0 0 C0.33 0 0.66 0 1 0 C1 119.79 1 239.58 1 363 C-230.33 363 -461.66 363 -700 363 C-700 324.06 -700 285.12 -700 245 C-699.67 245 -699.34 245 -699 245 C-699 283.61 -699 322.22 -699 362 C-676.725 361.835 -676.725 361.835 -564 361 C-564 360.67 -564 360.34 -564 360 C-527.744 359.827 -491.488 359.664 -455.231 359.516 C-450.954 359.498 -446.677 359.481 -442.4 359.463 C-441.548 359.459 -440.697 359.456 -439.819 359.452 C-426.018 359.395 -412.218 359.331 -398.417 359.264 C-384.264 359.195 -370.11 359.135 -355.957 359.081 C-347.218 359.047 -338.48 359.008 -329.742 358.961 C-323.755 358.929 -317.769 358.905 -311.782 358.887 C-308.325 358.876 -304.867 358.862 -301.41 358.839 C-297.667 358.816 -293.924 358.805 -290.18 358.797 C-289.08 358.788 -287.98 358.778 -286.847 358.768 C-286.347 358.768 -286.347 358.768 -283.82 358.77 C-283.388 358.768 -283.388 358.768 -281.2 358.758 C-279 359 -279 359 -276 361 C-273.858 361.255 -273.858 361.255 -271.32 361.262 C-270.353 361.269 -269.385 361.277 -268.388 361.284 C-267.856 361.283 -267.856 361.283 -265.161 361.278 C-264.034 361.284 -262.907 361.29 -261.746 361.296 C-257.939 361.313 -254.131 361.316 -250.323 361.319 C-247.56 361.327 -244.796 361.338 -242.032 361.35 C-235.365 361.375 -228.697 361.39 -222.03 361.401 C-214.32 361.415 -206.61 361.441 -198.9 361.468 C-178.537 361.531 -158.175 361.577 -137.812 361.625 C-115.073 361.687 -115.073 361.687 0 362 C0 242.54 0 123.08 0 0 Z " fill="#BFB309" transform="translate(1026,552)"/>
<path d="M0 0 C135.3 0 270.6 0 410 0 C409.34 1.32 408.68 2.64 408 4 C407.34 4 406.68 4 406 4 C406 3.01 406 2.02 406 1 C272.02 1 138.04 1 0 1 C0 0.67 0 0.34 0 0 Z " fill="#FEC903" transform="translate(598,366)"/>
<path d="M0 0 C2.96 5.328 3.125 10.297 3.12 16.321 C3.121 17.048 3.122 17.775 3.123 18.524 C3.124 20.955 3.119 23.385 3.114 25.816 C3.113 27.56 3.113 29.305 3.114 31.049 C3.114 35.782 3.108 40.515 3.101 45.248 C3.095 50.196 3.095 55.143 3.093 60.091 C3.09 69.458 3.082 78.825 3.072 88.193 C3.061 98.858 3.055 109.523 3.05 120.188 C3.04 142.125 3.022 164.063 3 186 C2.01 185.67 1.02 185.34 0 185 C-0.154 161.174 -0.302 137.349 -0.443 113.523 C-0.509 102.461 -0.576 91.399 -0.648 80.337 C-0.711 70.698 -0.77 61.06 -0.825 51.421 C-0.854 46.315 -0.885 41.209 -0.921 36.102 C-0.954 31.301 -0.982 26.499 -1.007 21.698 C-1.017 19.931 -1.028 18.165 -1.042 16.398 C-1.06 13.995 -1.072 11.591 -1.082 9.188 C-1.086 8.835 -1.086 8.835 -1.103 7.048 C-1.114 2.228 -1.114 2.228 0 0 Z " fill="#1E871D" transform="translate(324,611)"/>
<path d="M0 0 C0.382 0.045 0.382 0.045 2.316 0.273 C4.438 0.625 4.438 0.625 7.438 1.625 C8.839 1.719 10.244 1.759 11.649 1.764 C12.511 1.769 13.374 1.775 14.263 1.78 C15.212 1.781 16.16 1.782 17.137 1.783 C18.144 1.788 19.152 1.793 20.189 1.798 C23.58 1.814 26.97 1.822 30.36 1.83 C32.784 1.84 35.208 1.85 37.632 1.86 C42.859 1.882 48.086 1.9 53.313 1.916 C60.87 1.939 68.427 1.967 75.985 1.996 C88.245 2.044 100.506 2.087 112.766 2.128 C124.677 2.167 136.589 2.208 148.5 2.253 C148.867 2.254 148.867 2.254 150.724 2.261 C154.406 2.275 158.089 2.288 161.771 2.302 C192.326 2.416 222.882 2.523 253.438 2.625 C253.438 2.955 253.438 3.285 253.438 3.625 C160.048 3.625 66.658 3.625 -29.562 3.625 C-29.562 3.295 -29.562 2.965 -29.562 2.625 C-28.947 2.57 -28.332 2.514 -27.698 2.457 C-24.903 2.204 -22.108 1.946 -19.312 1.688 C-18.344 1.6 -17.376 1.513 -16.379 1.424 C-15.444 1.337 -14.51 1.25 -13.547 1.16 C-13.117 1.121 -13.117 1.121 -10.944 0.922 C-1.773 -0.222 -1.773 -0.222 0 0 Z " fill="#14811E" transform="translate(773.5625,548.375)"/>
<path d="M0 0 C2.961 2.648 2.961 2.648 3.312 5.812 C2.983 9.17 2.302 11.89 1 15 C0.67 15.165 0.67 15.165 -1 16 C-1.407 18.322 -1.744 20.657 -2 23 C-2.99 23.33 -3.98 23.66 -5 24 C-5 26.31 -5 28.62 -5 31 C-5.99 31 -6.98 31 -8 31 C-8 33.97 -8 36.94 -8 40 C-8.66 40 -9.32 40 -10 40 C-10 40.66 -10 41.32 -10 42 C-10.66 42 -11.32 42 -12 42 C-12 43.32 -12 44.64 -12 46 C-12.66 46 -13.32 46 -14 46 C-10.588 30.323 -6.441 14.738 0 0 Z " fill="#F2C104" transform="translate(348,533)"/>
<path d="M0 0 C0.495 0.165 0.495 0.165 3 1 C-5.855 15.064 -17.133 27.424 -29 39 C-29.66 38.67 -30.32 38.34 -31 38 C-30.494 35.831 -30 34 -29 32 C-28.34 32 -27.68 32 -27 32 C-27 31.34 -27 30.68 -27 30 C-25.68 30 -24.36 30 -23 30 C-23 29.01 -23 28.02 -23 27 C-22.34 26.67 -21.68 26.34 -21 26 C-21 25.01 -21 24.02 -21 23 C-20.34 23 -19.68 23 -19 23 C-19 22.34 -19 21.68 -19 21 C-17.68 21 -16.36 21 -15 21 C-14.711 20.031 -14.423 19.061 -14.125 18.062 C-13 15 -13 15 -11 14 C-11 13.34 -11 12.68 -11 12 C-10.01 11.67 -9.02 11.34 -8 11 C-7.67 10.01 -7.34 9.02 -7 8 C-6.34 8 -5.68 8 -5 8 C-4.67 6.68 -4.34 5.36 -4 4 C-3.34 4 -2.68 4 -2 4 C-2 3.01 -2 2.02 -2 1 C-1.34 0.67 -0.68 0.34 0 0 Z " fill="#F1C106" transform="translate(972,425)"/>
<path d="M0 0 C36.96 0 73.92 0 112 0 C112 0.33 112 0.66 112 1 C94.84 1.165 94.84 1.165 8 2 C7.34 3.32 6.68 4.64 6 6 C4.75 7.75 4.75 7.75 3 9 C-0.188 9.188 -0.188 9.188 -3 9 C-2.01 6.03 -1.02 3.06 0 0 Z " fill="#0C9126" transform="translate(1007,367)"/>
<path d="M0 0 C0.66 0 1.32 0 2 0 C2.33 0.99 2.66 1.98 3 3 C-4.778 11.334 -13.511 18.674 -23 25 C-22.688 22.125 -22.688 22.125 -22 19 C-19 17 -19 17 -16 17 C-16 16.34 -16 15.68 -16 15 C-14.35 14.34 -12.7 13.68 -11 13 C-11 12.01 -11 11.02 -11 10 C-8.333 8.667 -5.667 7.333 -3 6 C-3 5.01 -3 4.02 -3 3 C-2.34 3 -1.68 3 -1 3 C-0.67 2.01 -0.34 1.02 0 0 Z " fill="#EAC008" transform="translate(936,465)"/>
<path d="M0 0 C0.772 0.098 1.544 0.196 2.34 0.297 C7.24 1.016 12.121 1.837 17 2.688 C17 3.018 17 3.347 17 3.688 C1.82 3.688 -13.36 3.688 -29 3.688 C-29 3.357 -29 3.028 -29 2.688 C-28.385 2.632 -27.77 2.577 -27.136 2.52 C-24.34 2.266 -21.545 2.008 -18.75 1.75 C-17.782 1.663 -16.814 1.576 -15.816 1.486 C-14.882 1.399 -13.947 1.312 -12.984 1.223 C-12.555 1.183 -12.555 1.183 -10.382 0.985 C-1.234 -0.157 -1.234 -0.157 0 0 Z " fill="#1F8421" transform="translate(773,548.3125)"/>
<path d="M0 0 C0 0.33 0 0.66 0 1 C-2.31 1.33 -4.62 1.66 -7 2 C-5.68 2.66 -4.36 3.32 -3 4 C-4.728 4.339 -6.458 4.671 -8.188 5 C-8.669 5.093 -8.669 5.093 -11.105 5.562 C-13.827 5.974 -16.257 6.227 -19 6 C-19.66 5.34 -20.32 4.68 -21 4 C-23.82 3.805 -23.82 3.805 -27.125 3.875 C-27.673 3.884 -27.673 3.884 -30.445 3.93 C-31.288 3.953 -32.131 3.976 -33 4 C-33 3.67 -33 3.34 -33 3 C-29.189 2.491 -25.376 1.994 -21.562 1.5 C-20.493 1.357 -19.424 1.214 -18.322 1.066 C-12.155 0.274 -6.218 -0.157 0 0 Z " fill="#D7BD08" transform="translate(589,366)"/>
<path d="M0 0 C0 1.667 0 3.333 0 5 C-3.3 5 -6.6 5 -10 5 C-10 4.34 -10 3.68 -10 3 C-10.299 3.093 -10.299 3.093 -11.812 3.562 C-14 4 -14 4 -17 3 C-17 3.66 -17 4.32 -17 5 C-20.96 5 -24.92 5 -29 5 C-29 4.67 -29 4.34 -29 4 C-24.92 3.132 -20.835 2.283 -16.75 1.438 C-15.591 1.191 -14.432 0.944 -13.238 0.689 C-12.123 0.461 -11.008 0.232 -9.859 -0.004 C-8.833 -0.219 -7.807 -0.433 -6.749 -0.655 C-4.107 -0.987 -2.491 -0.857 0 0 Z " fill="#2A8F20" transform="translate(803,543)"/>
<path d="M0 0 C0.33 0.66 0.66 1.32 1 2 C1.66 2 2.32 2 3 2 C3 2.66 3 3.32 3 4 C2.01 4 1.02 4 0 4 C-0.33 4.99 -0.66 5.98 -1 7 C-5.242 10.434 -8.585 11.567 -14 12 C-9.734 7.459 -4.964 3.753 0 0 Z " fill="#EABF05" transform="translate(444,415)"/>
<path d="M0 0 C-0.998 2.995 -1.514 4.158 -4 6 C-5.812 5.625 -5.812 5.625 -8 5 C-10.009 5.271 -12.014 5.594 -14 6 C-14 5.34 -14 4.68 -14 4 C-14.99 4 -15.98 4 -17 4 C-16.67 4.99 -16.34 5.98 -16 7 C-17.65 7 -19.3 7 -21 7 C-21 6.01 -21 5.02 -21 4 C-18.439 3.326 -15.877 2.661 -13.312 2 C-12.591 1.809 -11.87 1.618 -11.127 1.422 C-7.331 0.451 -3.954 -0.25 0 0 Z " fill="#07771E" transform="translate(223,270)"/>
<path d="M0 0 C0 0.66 0 1.32 0 2 C1.65 2 3.3 2 5 2 C5 2.33 5 2.66 5 3 C-1.148 4.628 -6.64 5.202 -13 5 C-13.33 4.01 -13.66 3.02 -14 2 C-9.073 0.029 -5.22 -0.18 0 0 Z " fill="#F6C708" transform="translate(769,545)"/>
<path d="M0 0 C0.99 0.66 1.98 1.32 3 2 C0.25 6.875 0.25 6.875 -2 8 C-3.712 7.913 -5.422 7.759 -7.125 7.562 C-8.035 7.461 -8.945 7.359 -9.883 7.254 C-10.581 7.17 -11.28 7.086 -12 7 C-9.36 4.925 -6.772 3.273 -3.75 1.812 C-3.397 1.64 -3.397 1.64 -1.609 0.77 C-1.078 0.516 -0.547 0.262 0 0 Z " fill="#158C22" transform="translate(882,510)"/>
<path d="M0 0 C0 0.66 0 1.32 0 2 C-0.99 2.33 -1.98 2.66 -3 3 C-3 3.66 -3 4.32 -3 5 C-5.905 7.042 -7.401 8 -11 8 C-12.688 6 -12.688 6 -14 4 C-12.425 3.131 -10.839 2.28 -9.25 1.438 C-8.368 0.962 -7.487 0.486 -6.578 -0.004 C-3.793 -1.08 -2.73 -1.065 0 0 Z " fill="#168C21" transform="translate(872,518)"/>
<path d="M0 0 C1.32 0.33 2.64 0.66 4 1 C4 12.88 4 24.76 4 37 C3.67 37 3.34 37 3 37 C2.98 36.306 2.96 35.611 2.94 34.896 C2.843 31.68 2.734 28.465 2.625 25.25 C2.594 24.158 2.563 23.066 2.531 21.941 C2.267 14.487 1.41 7.324 0 0 Z " fill="#001802" transform="translate(1355,840)"/>
<path d="M0 0 C0.66 0 1.32 0 2 0 C2.33 0.99 2.66 1.98 3 3 C1.601 5.51 0.174 7.822 -1.438 10.188 C-1.871 10.842 -2.305 11.496 -2.752 12.17 C-3.825 13.786 -4.912 15.394 -6 17 C-7.202 13.026 -6.637 10.848 -5 7 C-3.5 5.375 -3.5 5.375 -2 4 C-0.812 1.812 -0.812 1.812 0 0 Z " fill="#F0C106" transform="translate(982,409)"/>
<path d="M0 0 C0.271 0.113 0.271 0.113 1.641 0.684 C1.311 1.674 0.981 2.664 0.641 3.684 C-0.349 3.684 -1.339 3.684 -2.359 3.684 C-2.689 4.674 -3.019 5.664 -3.359 6.684 C-9.414 7.66 -9.414 7.66 -11.359 7.684 C-12.019 7.024 -12.679 6.364 -13.359 5.684 C-11.618 4.648 -9.866 3.63 -8.109 2.621 C-7.622 2.337 -7.622 2.337 -5.156 0.898 C-2.359 -0.316 -2.359 -0.316 0 0 Z " fill="#EFBF04" transform="translate(480.359375,395.31640625)"/>
<path d="M0 0 C0.33 1.32 0.66 2.64 1 4 C0.67 4.165 0.67 4.165 -1 5 C-1 6.32 -1 7.64 -1 9 C-1.804 9.268 -2.609 9.536 -3.438 9.812 C-4.283 10.204 -5.129 10.596 -6 11 C-6.33 11.99 -6.66 12.98 -7 14 C-8.32 13.34 -9.64 12.68 -11 12 C-7.37 8.04 -3.74 4.08 0 0 Z " fill="#E5BE06" transform="translate(402,451)"/>
<path d="M0 0 C0.66 0 1.32 0 2 0 C2.34 3.668 2.366 5.465 0.25 8.555 C-0.493 9.32 -1.235 10.086 -2 10.875 C-2.743 11.656 -3.485 12.437 -4.25 13.242 C-4.539 13.532 -4.539 13.532 -6 15 C-7.946 11.525 -8.076 9.875 -7 6 C-5.02 5.67 -3.04 5.34 -1 5 C-0.67 3.35 -0.34 1.7 0 0 Z " fill="#118825" transform="translate(396,451)"/>
<path d="M0 0 C1.512 1.348 1.512 1.348 3 3 C2.739 6.397 1.644 9.041 0 12 C-0.33 11.01 -0.66 10.02 -1 9 C-2.801 11.947 -4.502 14.888 -6 18 C-7.426 13.722 -5.456 11.132 -3.562 7.312 C-3.224 6.611 -2.886 5.909 -2.537 5.186 C-1.7 3.453 -0.851 1.726 0 0 Z " fill="#EBC005" transform="translate(356,516)"/>
<path d="M0 0 C0.66 0.66 1.32 1.32 2 2 C1.457 3.002 0.915 4.003 0.355 5.035 C-0.367 6.378 -1.09 7.72 -1.812 9.062 C-2.169 9.719 -2.525 10.376 -2.893 11.053 C-5.167 15.289 -7.167 19.554 -9 24 C-9.855 21.592 -10.164 20.422 -9.223 18 C-8.84 17.34 -8.457 16.68 -8.062 16 C-6.226 12.812 -6 11.928 -6 8 C-4.71 6.624 -3.373 5.292 -2 4 C-0.75 1.75 -0.75 1.75 0 0 Z " fill="#188922" transform="translate(361,503)"/>
<path d="M0 0 C1.32 0.66 2.64 1.32 4 2 C0.7 5.3 -2.6 8.6 -6 12 C-6.66 10.68 -7.32 9.36 -8 8 C-6.625 6 -6.625 6 -5 4 C-4.34 4 -3.68 4 -3 4 C-3 3.34 -3 2.68 -3 2 C-2.01 2 -1.02 2 0 2 C0 1.34 0 0.68 0 0 Z " fill="#011303" transform="translate(88,335)"/>
<path d="M0 0 C0.66 0.33 1.32 0.66 2 1 C1.34 1.66 0.68 2.32 0 3 C0 4.32 0 5.64 0 7 C-1.375 8.75 -1.375 8.75 -3 10 C-3.66 10 -4.32 10 -5 10 C-5 10.66 -5 11.32 -5 12 C-5.99 12 -6.98 12 -8 12 C-8.33 11.01 -8.66 10.02 -9 9 C-6.03 6.03 -3.06 3.06 0 0 Z " fill="#E8C108" transform="translate(412,441)"/>
<path d="M0 0 C4.175 -0.348 5.797 0.392 9 3 C-1.374 6.444 -1.374 6.444 -7 6 C-7.33 5.01 -7.66 4.02 -8 3 C-5.667 3 -3.333 3 -1 3 C-0.67 2.01 -0.34 1.02 0 0 Z " fill="#EFC108" transform="translate(806,536)"/>
<path d="M0 0 C0.66 0 1.32 0 2 0 C1.857 1.277 1.714 2.555 1.566 3.871 C1.004 8.933 0.468 13.997 -0.062 19.062 C-0.153 19.928 -0.244 20.794 -0.338 21.686 C-0.559 23.79 -0.779 25.895 -1 28 C-1.33 28 -1.66 28 -2 28 C-2.383 8.468 -2.383 8.468 0 0 Z " fill="#24891F" transform="translate(329,592)"/>
<path d="M0 0 C-1.32 0.33 -2.64 0.66 -4 1 C-4 1.99 -4 2.98 -4 4 C-7.47 5.586 -10.174 6.503 -14 6 C-15.648 4.48 -15.648 4.48 -17 3 C-15.106 2.493 -13.21 1.994 -11.312 1.5 C-10.785 1.361 -10.785 1.361 -8.113 0.656 C-5.289 0.061 -2.872 -0.128 0 0 Z " fill="#DABC09" transform="translate(556,370)"/>
<path d="M0 0 C-2.76 1.84 -4.621 2.606 -7.75 3.5 C-8.629 3.754 -9.508 4.008 -10.414 4.27 C-11.267 4.511 -12.121 4.752 -13 5 C-13.73 5.21 -14.459 5.42 -15.211 5.637 C-16.806 6.096 -18.403 6.549 -20 7 C-20.33 6.01 -20.66 5.02 -21 4 C-14.509 0.971 -7.137 -0.376 0 0 Z " fill="#020C03" transform="translate(199,275)"/>
<path d="M0 0 C0.577 0.206 1.155 0.413 1.75 0.625 C-1.256 3.631 -4.074 3.221 -8.25 3.625 C-8.25 4.285 -8.25 4.945 -8.25 5.625 C-9.811 5.965 -11.374 6.296 -12.938 6.625 C-13.373 6.718 -13.373 6.718 -15.574 7.188 C-18.187 7.615 -20.608 7.701 -23.25 7.625 C-19.93 5.411 -17.157 4.658 -13.312 3.625 C-9.268 2.536 -4.038 -0.673 0 0 Z " fill="#1E8B23" transform="translate(835.25,532.375)"/>
<path d="M0 0 C-3.756 3.429 -8.235 4.564 -13 6 C-13.33 4.68 -13.66 3.36 -14 2 C-12.68 2 -11.36 2 -10 2 C-10 1.34 -10 0.68 -10 0 C-6.424 -1.238 -3.663 -0.749 0 0 Z " fill="#F0C408" transform="translate(862,520)"/>
<path d="M0 0 C0.108 7.097 -0.061 13.961 -1 21 C-1.33 21 -1.66 21 -2 21 C-2.337 18.605 -2.67 16.209 -3 13.812 C-3.095 13.139 -3.191 12.465 -3.289 11.771 C-3.783 8.153 -4.113 4.652 -4 1 C-2 0 -2 0 0 0 Z " fill="#001203" transform="translate(1028,209)"/>
<path d="M0 0 C0.66 0.33 1.32 0.66 2 1 C1.67 1.66 1.34 2.32 1 3 C1.33 3.99 1.66 4.98 2 6 C-4.625 8.875 -4.625 8.875 -8 10 C-7.444 6.401 -6.251 5.001 -3.438 2.75 C-2.797 2.229 -2.156 1.708 -1.496 1.172 C-1.002 0.785 -0.509 0.398 0 0 Z " fill="#EBC004" transform="translate(427,428)"/>
<path d="M0 0 C4.457 0.499 6.577 2.02 9.812 5.062 C10.603 5.796 11.393 6.529 12.207 7.285 C12.503 7.568 12.503 7.568 14 9 C12.328 9.773 12.328 9.773 10 10 C7.422 8.164 7.422 8.164 4.75 5.625 C3.858 4.792 2.966 3.96 2.047 3.102 C0 1 0 1 0 0 Z " fill="#011004" transform="translate(817,1063)"/>
<path d="M0 0 C1 3 1 3 0.375 5.5 C-1.315 8.572 -2.812 9.6 -6 11 C-6.99 10.67 -7.98 10.34 -9 10 C-6.131 6.494 -3.268 3.147 0 0 Z " fill="#011103" transform="translate(1298,1058)"/>
<path d="M0 0 C0.33 0 0.66 0 1 0 C1.415 3.523 0.954 5.091 -0.688 8.312 C-1.069 8.756 -1.069 8.756 -3 11 C-5.645 11.168 -5.645 11.168 -8 11 C-7.59 10.457 -7.18 9.915 -6.758 9.355 C-6.219 8.64 -5.68 7.925 -5.125 7.188 C-4.591 6.48 -4.058 5.772 -3.508 5.043 C-2.292 3.395 -1.136 1.704 0 0 Z " fill="#1C8922" transform="translate(971,431)"/>
<path d="M0 0 C1.65 0 3.3 0 5 0 C3.844 3.912 2.645 6.875 0 10 C0 9.01 0 8.02 0 7 C-0.66 7 -1.32 7 -2 7 C-2 6.01 -2 5.02 -2 4 C-1.34 4 -0.68 4 0 4 C0 2.68 0 1.36 0 0 Z " fill="#F2C106" transform="translate(988,396)"/>
<path d="M0 0 C0.33 0.66 0.66 1.32 1 2 C1.66 2 2.32 2 3 2 C3 2.66 3 3.32 3 4 C2.01 4 1.02 4 0 4 C0 5.32 0 6.64 0 8 C-2.31 8.66 -4.62 9.32 -7 10 C-6.022 8.52 -5.043 7.041 -4.062 5.562 C-3.517 4.739 -2.972 3.915 -2.41 3.066 C-1 1 -1 1 0 0 Z " fill="#E7C005" transform="translate(388,467)"/>
<path d="M0 0 C0.33 0 0.66 0 1 0 C1 1.98 1 3.96 1 6 C0.67 6.165 0.67 6.165 -1 7 C-1.134 7.402 -1.134 7.402 -1.812 9.438 C-3 12 -3 12 -5.625 13.312 C-6.409 13.539 -7.192 13.766 -8 14 C-1.945 3.014 -1.945 3.014 0 0 Z " fill="#178724" transform="translate(987,407)"/>
<path d="M0 0 C0.722 0.144 1.444 0.289 2.188 0.438 C2.652 0.53 2.652 0.53 5 1 C6.667 1.333 8.333 1.667 10 2 C9.67 2.99 9.34 3.98 9 5 C6.69 5.33 4.38 5.66 2 6 C1.67 5.01 1.34 4.02 1 3 C1.33 2.34 1.66 1.68 2 1 C1.34 0.67 0.68 0.34 0 0 Z " fill="#07761E" transform="translate(1156,639)"/>
<path d="M0 0 C0.66 0.99 1.32 1.98 2 3 C1.34 3 0.68 3 0 3 C0.103 3.928 0.206 4.856 0.312 5.812 C0.209 6.864 0.106 7.916 0 9 C-2.5 10.875 -2.5 10.875 -5 12 C-5.33 11.01 -5.66 10.02 -6 9 C-4.785 6.738 -4.785 6.738 -3.062 4.312 C-2.497 3.504 -1.931 2.696 -1.348 1.863 C-0.903 1.248 -0.458 0.634 0 0 Z " fill="#188824" transform="translate(978,421)"/>
<path d="M0 0 C0.33 0.99 0.66 1.98 1 3 C0.361 3.124 -0.279 3.248 -0.938 3.375 C-1.618 3.581 -2.299 3.788 -3 4 C-3.33 4.66 -3.66 5.32 -4 6 C-6.31 5.67 -8.62 5.34 -11 5 C-7.727 2.333 -4.351 0 0 0 Z " fill="#E6BF04" transform="translate(491,390)"/>
<path d="M0 0 C0 1.32 0 2.64 0 4 C-3.63 4 -7.26 4 -11 4 C-11 3.34 -11 2.68 -11 2 C-3.375 0 -3.375 0 0 0 Z " fill="#E1BE06" transform="translate(537,374)"/>
<path d="M0 0 C0.99 0.66 1.98 1.32 3 2 C0.69 4.64 -1.62 7.28 -4 10 C-4.66 9.01 -5.32 8.02 -6 7 C-4.607 3.633 -3.021 2.014 0 0 Z " fill="#011503" transform="translate(73,351)"/>
<path d="M0 0 C0.99 0.99 1.98 1.98 3 3 C-2.28 3 -7.56 3 -13 3 C-9.337 -0.663 -5.016 -0.365 0 0 Z " fill="#F0C407" transform="translate(750,548)"/>
<path d="M0 0 C1.32 0.66 2.64 1.32 4 2 C2.381 3.03 0.755 4.049 -0.875 5.062 C-1.78 5.631 -2.685 6.199 -3.617 6.785 C-4.404 7.186 -5.19 7.587 -6 8 C-6.66 7.67 -7.32 7.34 -8 7 C-8 6.34 -8 5.68 -8 5 C-7.01 5 -6.02 5 -5 5 C-5 4.34 -5 3.68 -5 3 C-4.361 2.876 -3.721 2.752 -3.062 2.625 C-2.722 2.522 -2.722 2.522 -1 2 C-0.67 1.34 -0.34 0.68 0 0 Z " fill="#E6C00A" transform="translate(906,491)"/>
<path d="M0 0 C-0.33 3.3 -0.66 6.6 -1 10 C-1.66 10 -2.32 10 -3 10 C-3.33 10.66 -3.66 11.32 -4 12 C-4.081 10.563 -4.139 9.126 -4.188 7.688 C-4.222 6.887 -4.257 6.086 -4.293 5.262 C-3.984 2.879 -2.86 0 0 0 Z " fill="#148823" transform="translate(339,556)"/>
<path d="M0 0 C2.97 0.33 5.94 0.66 9 1 C8.67 1.66 8.34 2.32 8 3 C5.715 3.633 5.715 3.633 2.938 4.125 C2.018 4.293 1.099 4.46 0.152 4.633 C-0.203 4.693 -0.203 4.693 -2 5 C-1.34 4.67 -0.68 4.34 0 4 C0 2.68 0 1.36 0 0 Z " fill="#E4BD0A" transform="translate(821,532)"/>
<path d="M0 0 C0.66 1.32 1.32 2.64 2 4 C1.175 4.495 1.175 4.495 -3 7 C-3.33 6.34 -3.66 5.68 -4 5 C-4.66 5.66 -5.32 6.32 -6 7 C-6.66 6.34 -7.32 5.68 -8 5 C-6.68 4.175 -6.68 4.175 0 0 Z " fill="#198A22" transform="translate(901,498)"/>
<path d="M0 0 C0.99 0.99 1.98 1.98 3 3 C2.25 4.938 2.25 4.938 1 7 C-1 7.812 -1 7.812 -3 8 C-3.66 7.67 -4.32 7.34 -5 7 C-3.35 4.69 -1.7 2.38 0 0 Z " fill="#EAC206" transform="translate(380,477)"/>
<path d="M0 0 C0.99 0 1.98 0 3 0 C1.689 4.234 0.056 8.074 -2 12 C-2.33 11.34 -2.66 10.68 -3 10 C-3.66 9.67 -4.32 9.34 -5 9 C-4.01 8.67 -3.02 8.34 -2 8 C-2.021 7.526 -2.021 7.526 -2.125 5.125 C-2 2 -2 2 0 0 Z " fill="#E9BE06" transform="translate(1001,375)"/>
<path d="M0 0 C0.99 0.33 1.98 0.66 3 1 C2.551 2.815 2.091 4.627 1.625 6.438 C1.497 6.942 1.497 6.942 0.852 9.496 C0 12 0 12 -2 13 C-1.859 11.208 -1.712 9.416 -1.562 7.625 C-1.481 6.627 -1.4 5.63 -1.316 4.602 C-1 2 -1 2 0 0 Z " fill="#188C24" transform="translate(346,530)"/>
<path d="M0 0 C0 0.99 0 1.98 0 3 C-0.639 3.124 -1.279 3.247 -1.938 3.375 C-2.618 3.581 -3.299 3.788 -4 4 C-4.33 4.66 -4.66 5.32 -5 6 C-7.562 6.625 -7.562 6.625 -10 7 C-10.33 6.01 -10.66 5.02 -11 4 C-9.544 3.329 -8.085 2.663 -6.625 2 C-5.813 1.629 -5.001 1.258 -4.164 0.875 C-2 0 -2 0 0 0 Z " fill="#188C23" transform="translate(853,525)"/>
<path d="M0 0 C0.66 0.66 1.32 1.32 2 2 C1.938 5 1.938 5 1 8 C-1.562 9.375 -1.562 9.375 -4 10 C-2.891 6.513 -1.737 3.225 0 0 Z " fill="#05771D" transform="translate(31,415)"/>
<path d="M0 0 C0.99 0.33 1.98 0.66 3 1 C1.25 6.75 1.25 6.75 -1 9 C-1.99 8.67 -2.98 8.34 -4 8 C-4 7.01 -4 6.02 -4 5 C-3.01 5 -2.02 5 -1 5 C-0.67 3.35 -0.34 1.7 0 0 Z " fill="#EDC006" transform="translate(995,386)"/>
<path d="M0 0 C0.66 0.33 1.32 0.66 2 1 C-0.808 3.964 -3.183 6.445 -7 8 C-7.66 7.34 -8.32 6.68 -9 6 C-6.03 4.02 -3.06 2.04 0 0 Z " fill="#E3BD04" transform="translate(458,406)"/>
<path d="M0 0 C4.29 1.32 8.58 2.64 13 4 C10 6 10 6 8 6 C8 5.34 8 4.68 8 4 C5.03 3.67 2.06 3.34 -1 3 C-0.67 2.01 -0.34 1.02 0 0 Z " fill="#001003" transform="translate(936,1133)"/>
<path d="M0 0 C0 0.66 0 1.32 0 2 C2.64 1.67 5.28 1.34 8 1 C4.938 2.784 2.779 3.229 -0.75 3.125 C-1.549 3.107 -2.348 3.089 -3.172 3.07 C-3.775 3.047 -4.378 3.024 -5 3 C-5.33 2.01 -5.66 1.02 -6 0 C-3 -1 -3 -1 0 0 Z " fill="#DEBD08" transform="translate(761,547)"/>
<path d="M0 0 C0.33 0.66 0.66 1.32 1 2 C0.67 2.619 0.34 3.238 0 3.875 C-1.195 6.415 -0.923 7.416 0 10 C-1.98 10.33 -3.96 10.66 -6 11 C-5.19 9.353 -4.377 7.707 -3.562 6.062 C-3.11 5.146 -2.658 4.229 -2.191 3.285 C-1 1 -1 1 0 0 Z " fill="#EAC305" transform="translate(367,497)"/>
<path d="M0 0 C-2.871 1.914 -5.334 2.964 -8.562 4.125 C-9.533 4.478 -10.504 4.831 -11.504 5.195 C-14 6 -14 6 -16 6 C-16 5.01 -16 4.02 -16 3 C-14.014 2.512 -12.029 2.023 -10.043 1.535 C-6.467 0.598 -3.729 -0.101 0 0 Z " fill="#148728" transform="translate(520,378)"/>
<path d="M0 0 C0.33 0.99 0.66 1.98 1 3 C3.062 4.188 3.062 4.188 5 5 C4.34 6.32 3.68 7.64 3 9 C1.35 7.02 -0.3 5.04 -2 3 C-1.34 2.01 -0.68 1.02 0 0 Z " fill="#001003" transform="translate(1290,708)"/>
<path d="M0 0 C-5.75 4 -5.75 4 -8 4 C-8 2.35 -8 0.7 -8 -1 C-4.597 -2.215 -3.067 -1.862 0 0 Z " fill="#E8C008" transform="translate(895,503)"/>
<path d="M0 0 C0.99 0 1.98 0 3 0 C3 0.66 3 1.32 3 2 C3.99 2.33 4.98 2.66 6 3 C3.696 4.067 1.36 5.064 -1 6 C-1.66 5.67 -2.32 5.34 -3 5 C-3 4.34 -3 3.68 -3 3 C-2.01 3 -1.02 3 0 3 C0 2.01 0 1.02 0 0 Z " fill="#EFC409" transform="translate(874,509)"/>
<path d="M0 0 C0.33 0 0.66 0 1 0 C0.67 2.97 0.34 5.94 0 9 C-0.99 8.67 -1.98 8.34 -3 8 C-3.33 7.34 -3.66 6.68 -4 6 C-2.696 3.981 -1.362 1.981 0 0 Z " fill="#EBC003" transform="translate(372,489)"/>
<path d="M0 0 C1.65 0 3.3 0 5 0 C4.502 3.688 3.899 5.605 1 8 C0.67 5.36 0.34 2.72 0 0 Z " fill="#128926" transform="translate(370,482)"/>
<path d="M0 0 C1.675 0.286 3.344 0.618 5 1 C2.119 3.401 -0.564 5.473 -4 7 C-4 6.34 -4 5.68 -4 5 C-3.34 5 -2.68 5 -2 5 C-1.928 4.68 -1.928 4.68 -1.562 3.062 C-1 1 -1 1 0 0 Z " fill="#108826" transform="translate(441,413)"/>
<path d="M0 0 C0.33 0 0.66 0 1 0 C1 3.63 1 7.26 1 11 C-0.32 11 -1.64 11 -3 11 C-2.01 7.37 -1.02 3.74 0 0 Z " fill="#011903" transform="translate(1016,343)"/>
<path d="M0 0 C1.5 1.375 1.5 1.375 3 3 C3 3.66 3 4.32 3 5 C3.66 5 4.32 5 5 5 C4.67 5.66 4.34 6.32 4 7 C2.515 6.34 2.515 6.34 -5 3 C-3 1 -3 1 0 0 Z " fill="#010E02" transform="translate(886,22)"/>
<path d="M0 0 C2.31 0.66 4.62 1.32 7 2 C6.67 3.65 6.34 5.3 6 7 C1.125 2.25 1.125 2.25 0 0 Z " fill="#001003" transform="translate(1296,719)"/>
<path d="M0 0 C4.274 1.583 6.265 4.506 9 8 C6 8 6 8 4.395 6.758 C3.872 6.219 3.35 5.68 2.812 5.125 C2.283 4.591 1.753 4.058 1.207 3.508 C0 2 0 2 0 0 Z " fill="#05771F" transform="translate(1271,437)"/>
<path d="M0 0 C-0.66 1.32 -1.32 2.64 -2 4 C-2.99 4 -3.98 4 -5 4 C-5 3.34 -5 2.68 -5 2 C-5.99 1.67 -6.98 1.34 -8 1 C-3.375 -1.125 -3.375 -1.125 0 0 Z " fill="#EBBF05" transform="translate(499,388)"/>
<path d="M0 0 C5.75 1.875 5.75 1.875 8 3 C8 3.66 8 4.32 8 5 C2.462 4.385 2.462 4.385 0.125 2.438 C-0.246 1.963 -0.617 1.489 -1 1 C-0.67 0.67 -0.34 0.34 0 0 Z " fill="#001003" transform="translate(918,1126)"/>
<path d="M0 0 C0.66 0 1.32 0 2 0 C2.33 1.65 2.66 3.3 3 5 C1.35 5.33 -0.3 5.66 -2 6 C-1.34 4.02 -0.68 2.04 0 0 Z " fill="#E6BD04" transform="translate(345,542)"/>
<path d="M0 0 C-2.97 1.65 -5.94 3.3 -9 5 C-9.33 3.35 -9.66 1.7 -10 0 C-9.34 0 -8.68 0 -8 0 C-8 0.66 -8 1.32 -8 2 C-7.34 2 -6.68 2 -6 2 C-6 1.34 -6 0.68 -6 0 C-4 -1 -4 -1 0 0 Z " fill="#178927" transform="translate(465,403)"/>
<path d="M0 0 C0.33 0 0.66 0 1 0 C1.33 2.97 1.66 5.94 2 9 C1.01 9.33 0.02 9.66 -1 10 C-1.33 10.99 -1.66 11.98 -2 13 C-1.48 8.621 -0.943 4.312 0 0 Z " fill="#001102" transform="translate(1023,317)"/>
<path d="M0 0 C0.402 0.01 0.402 0.01 2.438 0.062 C2.438 1.053 2.438 2.043 2.438 3.062 C3.098 3.393 3.757 3.722 4.438 4.062 C0.169 4.062 -0.501 3.686 -3.562 1.062 C-2.562 0.062 -2.562 0.062 0 0 Z " fill="#010E03" transform="translate(1238.5625,667.9375)"/>
<path d="M0 0 C1.5 1.25 1.5 1.25 3 3 C3 4.32 3 5.64 3 7 C1.35 6.67 -0.3 6.34 -2 6 C-1.34 4.02 -0.68 2.04 0 0 Z " fill="#E8C108" transform="translate(348,533)"/>
<path d="M0 0 C2 3 2 3 1.625 5.688 C1.419 6.451 1.213 7.214 1 8 C-0.32 8.33 -1.64 8.66 -3 9 C-2.01 6.03 -1.02 3.06 0 0 Z " fill="#001504" transform="translate(1340,987)"/>
<path d="M0 0 C2.463 2.463 2.998 4.707 4 8 C3.01 8.33 2.02 8.66 1 9 C-1.125 2.25 -1.125 2.25 0 0 Z " fill="#000F03" transform="translate(755,972)"/>
<path d="M0 0 C1.98 0.66 3.96 1.32 6 2 C6 2.99 6 3.98 6 5 C3.831 4.494 2 4 0 3 C0 2.01 0 1.02 0 0 Z " fill="#05771F" transform="translate(1204,654)"/>
<path d="M0 0 C3.492 -0.1 6.594 0.222 10 1 C6.565 3.29 5.015 3.178 1 3 C0.67 2.01 0.34 1.02 0 0 Z " fill="#E0BC09" transform="translate(798,539)"/>
<path d="M0 0 C0 3.106 -0.539 4.353 -2 7 C-1.34 7.33 -0.68 7.66 0 8 C-0.99 7.835 -0.99 7.835 -6 7 C-4.02 4.69 -2.04 2.38 0 0 Z " fill="#309122" transform="translate(946,460)"/>
<path d="M0 0 C0.99 0.33 1.98 0.66 3 1 C3 1.66 3 2.32 3 3 C2.34 3 1.68 3 1 3 C0.67 3.66 0.34 4.32 0 5 C-1.65 4.67 -3.3 4.34 -5 4 C-2.688 1.938 -2.688 1.938 0 0 Z " fill="#E8C107" transform="translate(465,402)"/>
<path d="M0 0 C2.31 0.33 4.62 0.66 7 1 C5.188 2.562 5.188 2.562 3 4 C2.01 3.67 1.02 3.34 0 3 C0 2.01 0 1.02 0 0 Z " fill="#F0C105" transform="translate(865,514)"/>
<path d="M0 0 C0 0.66 0 1.32 0 2 C-3.215 3.607 -6.436 3.057 -10 3 C-6.262 0.508 -4.523 0 0 0 Z " fill="#D8BF0A" transform="translate(524,378)"/>
<path d="M0 0 C0.33 0 0.66 0 1 0 C1 2.64 1 5.28 1 8 C-0.32 8.33 -1.64 8.66 -3 9 C-2.01 6.03 -1.02 3.06 0 0 Z " fill="#208A25" transform="translate(1002,378)"/>
<path d="M0 0 C0 0.66 0 1.32 0 2 C-3.63 2.33 -7.26 2.66 -11 3 C-4.333 -1.444 -4.333 -1.444 0 0 Z " fill="#E1BF06" transform="translate(509,384)"/>
<path d="M0 0 C0.66 0.99 1.32 1.98 2 3 C1.67 3.99 1.34 4.98 1 6 C1.66 6.66 2.32 7.32 3 8 C1.35 8 -0.3 8 -2 8 C-1.125 2.25 -1.125 2.25 0 0 Z " fill="#001202" transform="translate(1011,358)"/>
<path d="M0 0 C0.981 3.053 0.981 4.947 0 8 C-0.99 7.67 -1.98 7.34 -3 7 C-1.125 1.125 -1.125 1.125 0 0 Z " fill="#056E1C" transform="translate(37,139)"/>
<path d="M0 0 C1.65 0 3.3 0 5 0 C5 0.66 5 1.32 5 2 C5.99 2.33 6.98 2.66 8 3 C6.35 3.33 4.7 3.66 3 4 C3 3.34 3 2.68 3 2 C2.01 2 1.02 2 0 2 C0 1.34 0 0.68 0 0 Z " fill="#ECC20B" transform="translate(834,527)"/>
<path d="M0 0 C0.33 0.99 0.66 1.98 1 3 C1.99 3.33 2.98 3.66 4 4 C2.02 4.66 0.04 5.32 -2 6 C-2.33 5.01 -2.66 4.02 -3 3 C-2.01 2.01 -1.02 1.02 0 0 Z " fill="#E4BF09" transform="translate(845,523)"/>
<path d="M0 0 C0.99 0.33 1.98 0.66 3 1 C1.71 2.376 0.373 3.708 -1 5 C-1.66 5 -2.32 5 -3 5 C-2.625 3.062 -2.625 3.062 -2 1 C-1.34 0.67 -0.68 0.34 0 0 Z " fill="#E7C007" transform="translate(883,506)"/>
<path d="M0 0 C0.66 0.33 1.32 0.66 2 1 C2 1.99 2 2.98 2 4 C2.66 4.33 3.32 4.66 4 5 C1.062 4.625 1.062 4.625 -2 4 C-2.33 3.34 -2.66 2.68 -3 2 C-2.01 1.34 -1.02 0.68 0 0 Z " fill="#001803" transform="translate(1194,382)"/>
</svg>
